<?xml version="1.0" encoding="utf-8"?>
<!-- Generator: Adobe Illustrator 26.0.2, SVG Export Plug-In . SVG Version: 6.00 Build 0)  -->
<svg version="1.1" id="Layer_1" xmlns="http://www.w3.org/2000/svg" xmlns:xlink="http://www.w3.org/1999/xlink" x="0px" y="0px"
	 viewBox="0 0 1000 1000" style="enable-background:new 0 0 1000 1000;" xml:space="preserve">
<style type="text/css">
	.st0{clip-path:url(#SVGID_00000109015627531565200760000007212434999656008328_);}
	.st1{clip-path:url(#SVGID_00000050625006916523490910000004829871966357783966_);}
	.st2{clip-path:url(#SVGID_00000088099528116579113060000005989678317781424786_);}
	.st3{fill:url(#SVGID_00000000937221394356858500000002704440368426807432_);}
</style>
<g id="Symbol">
	<g>
		<defs>
			<path id="SVGID_1_" d="M659.6,273.3c-57.7,0-102.7,43.4-143.5,98.6C460,300.5,413.1,273.3,357,273.3
				c-114.4,0-202,148.9-202,306.4c0,98.6,47.7,160.8,127.6,160.8c57.5,0,98.9-27.1,172.4-155.6c0,0,30.6-54.1,51.7-91.4
				c7.4,11.9,15.2,24.8,23.3,38.6l34.5,58c67.2,112.4,104.6,150.5,172.4,150.5c77.8,0,121.2-63,121.2-163.7
				C858,411.9,768.4,273.3,659.6,273.3z M398.9,550.1c-59.6,93.4-80.2,114.4-113.4,114.4c-34.2,0-54.5-30-54.5-83.5
				c0-114.4,57-231.4,125-231.4c36.8,0,67.6,21.3,114.7,88.7C426,507,398.9,550.1,398.9,550.1z M623.9,538.3l-41.2-68.8
				c-11.2-18.1-21.9-34.8-32.2-50.1c37.2-57.3,67.8-85.9,104.2-85.9C730.5,333.6,791,445.1,791,582c0,52.2-17.1,82.5-52.5,82.5
				C704.6,664.5,688.3,642.1,623.9,538.3z"/>
		</defs>
		<clipPath id="SVGID_00000137093052890585662740000003635927476919750829_">
			<use xlink:href="#SVGID_1_"  style="overflow:visible;"/>
		</clipPath>
		<g style="clip-path:url(#SVGID_00000137093052890585662740000003635927476919750829_);">
			<g>
				<defs>
					<rect id="SVGID_00000060030910357378191550000010891911776508884399_" x="152.6" y="271" width="707.8" height="471.9"/>
				</defs>
				<clipPath id="SVGID_00000163054803824764578740000013060564656838175896_">
					<use xlink:href="#SVGID_00000060030910357378191550000010891911776508884399_"  style="overflow:visible;"/>
				</clipPath>
				<g style="clip-path:url(#SVGID_00000163054803824764578740000013060564656838175896_);">
					<g>
						<defs>
							<rect id="SVGID_00000179622654563873855240000011333948972663664015_" x="152.6" y="271" width="707.8" height="471.9"/>
						</defs>
						<clipPath id="SVGID_00000041293697101876230480000011490411046345994118_">
							<use xlink:href="#SVGID_00000179622654563873855240000011333948972663664015_"  style="overflow:visible;"/>
						</clipPath>
						<g style="clip-path:url(#SVGID_00000041293697101876230480000011490411046345994118_);">
							
								<image style="overflow:visible;enable-background:new    ;" width="3157" height="2105" xlink:href="BA40F660.png"  transform="matrix(0.2243 0 0 0.2243 152.4395 270.8968)">
							</image>
						</g>
					</g>
				</g>
			</g>
		</g>
	</g>
	
		<linearGradient id="SVGID_00000005965616430316150820000018151848574627045285_" gradientUnits="userSpaceOnUse" x1="559.3496" y1="479.6882" x2="364.7879" y2="734.6315" gradientTransform="matrix(1 0 0 -1 0 1002)">
		<stop  offset="0.1336" style="stop-color:#0869E1"/>
		<stop  offset="0.8727" style="stop-color:#0064E0"/>
	</linearGradient>
	<path style="fill:url(#SVGID_00000005965616430316150820000018151848574627045285_);" d="M582.6,469.6
		C493.3,324.2,433.8,273.3,357,273.3l-1,76.4c50.3,0,89.3,39.6,174,182.4l5.2,8.7L582.6,469.6z"/>
</g>
</svg>
